<?xml version="1.0" encoding="utf-8"?>
<svg xmlns="http://www.w3.org/2000/svg" height="48" width="48" viewBox="0 0 48 48">
  <g>
    <path id="path1" transform="rotate(0,24,24) translate(10,10.4510617256165) scale(0.875,0.875)  " fill="#C0C0C0" d="M18.88501,23.042998L26.804993,23.042998 26.804993,30.969001 18.88501,30.969001z M9.4360352,23.042998L17.358032,23.042998 17.358032,30.969001 9.4360352,30.969001z M0.014038086,23.042998L7.9360352,23.042998 7.9360352,30.969001 0.014038086,30.969001z M18.871033,13.609001L26.791016,13.609001 26.791016,21.535994 18.871033,21.535994z M9.4219971,13.609001L17.342041,13.609001 17.342041,21.535994 9.4219971,21.535994z M0,13.609001L7.9219971,13.609001 7.9219971,21.535994 0,21.535994z M9.4219971,4.1859968L17.342041,4.1859968 17.342041,12.113998 9.4219971,12.113998z M0,4.1859968L7.9219971,4.1859968 7.9219971,12.113998 0,12.113998z M25.846008,0L32,5.2310026 26.773987,11.382995 20.619019,6.155998z" />
  </g>
</svg>
